<svg width="82" height="82" viewBox="0 0 82 82" fill="none" xmlns="http://www.w3.org/2000/svg">
<path d="M43.7675 27.3675C43.0158 26.6158 42.0756 26.2564 40.9467 26.2892C39.8178 26.322 38.8789 26.7156 38.13 27.47C37.3783 28.2217 37.0025 29.1783 37.0025 30.34C37.0025 31.5017 37.3783 32.4583 38.13 33.21L41.82 36.9H28.5975C27.4358 36.9 26.4792 37.2922 25.7275 38.0767C24.9758 38.8612 24.6 39.8356 24.6 41C24.6 42.1617 24.9936 43.1347 25.7808 43.9192C26.568 44.7037 27.5411 45.0973 28.7 45.1H41.82L38.0275 48.8925C37.2758 49.6442 36.9164 50.5844 36.9492 51.7133C36.982 52.8422 37.3756 53.7811 38.13 54.53C38.8817 55.2817 39.8383 55.6575 41 55.6575C42.1617 55.6575 43.1183 55.2817 43.87 54.53L54.53 43.87C55.35 43.05 55.76 42.0933 55.76 41C55.76 39.9067 55.35 38.95 54.53 38.13L43.7675 27.3675ZM41 1.52588e-05C46.6717 1.52588e-05 52.0017 1.07694 56.99 3.23081C61.9783 5.38467 66.3175 8.30524 70.0075 11.9925C73.6975 15.6825 76.6181 20.0217 78.7692 25.01C80.9203 29.9983 81.9973 35.3283 82 41C82 46.6717 80.9231 52.0017 78.7692 56.99C76.6153 61.9783 73.6948 66.3175 70.0075 70.0075C66.3175 73.6975 61.9783 76.6181 56.99 78.7692C52.0017 80.9203 46.6717 81.9973 41 82C35.3283 82 29.9983 80.9231 25.01 78.7692C20.0217 76.6153 15.6825 73.6948 11.9925 70.0075C8.30251 66.3175 5.38058 61.9783 3.22672 56.99C1.07285 52.0017 -0.00272369 46.6717 1.52588e-05 41C1.52588e-05 35.3283 1.07694 29.9983 3.23081 25.01C5.38467 20.0217 8.30524 15.6825 11.9925 11.9925C15.6825 8.30251 20.0217 5.38058 25.01 3.22672C29.9983 1.07285 35.3283 -0.00272369 41 1.52588e-05ZM41 8.20001C31.9117 8.20001 24.1722 11.3939 17.7817 17.7817C11.3912 24.1695 8.19727 31.9089 8.20001 41C8.20001 50.0883 11.3939 57.8278 17.7817 64.2183C24.1695 70.6088 31.9089 73.8027 41 73.8C50.0883 73.8 57.8278 70.6061 64.2183 64.2183C70.6088 57.8305 73.8027 50.0911 73.8 41C73.8 31.9117 70.6061 24.1722 64.2183 17.7817C57.8305 11.3912 50.0911 8.19727 41 8.20001Z" fill="darkred"/>
</svg>
