<svg width="82" height="82" viewBox="0 0 82 82" fill="none" xmlns="http://www.w3.org/2000/svg">
<path d="M38.2325 54.6325C38.9842 55.3842 39.9244 55.7436 41.0533 55.7108C42.1822 55.678 43.1211 55.2844 43.87 54.53C44.6217 53.7783 44.9975 52.8217 44.9975 51.66C44.9975 50.4983 44.6217 49.5417 43.87 48.79L40.18 45.1H53.4025C54.5642 45.1 55.5208 44.7078 56.2725 43.9233C57.0242 43.1388 57.4 42.1644 57.4 41C57.4 39.8383 57.0064 38.8653 56.2192 38.0808C55.432 37.2963 54.4589 36.9027 53.3 36.9H40.18L43.9725 33.1075C44.7242 32.3558 45.0836 31.4156 45.0508 30.2867C45.018 29.1578 44.6244 28.2189 43.87 27.47C43.1183 26.7183 42.1617 26.3425 41 26.3425C39.8383 26.3425 38.8817 26.7183 38.13 27.47L27.47 38.13C26.65 38.95 26.24 39.9067 26.24 41C26.24 42.0933 26.65 43.05 27.47 43.87L38.2325 54.6325ZM41 82C35.3283 82 29.9983 80.9231 25.01 78.7692C20.0217 76.6153 15.6825 73.6948 11.9925 70.0075C8.3025 66.3175 5.38193 61.9783 3.2308 56.99C1.07967 52.0017 0.00273333 46.6717 0 41C0 35.3283 1.07693 29.9983 3.2308 25.01C5.38467 20.0217 8.30523 15.6825 11.9925 11.9925C15.6825 8.3025 20.0217 5.38193 25.01 3.2308C29.9983 1.07967 35.3283 0.00273333 41 0C46.6717 0 52.0017 1.07693 56.99 3.2308C61.9783 5.38467 66.3175 8.30523 70.0075 11.9925C73.6975 15.6825 76.6194 20.0217 78.7733 25.01C80.9272 29.9983 82.0027 35.3283 82 41C82 46.6717 80.9231 52.0017 78.7692 56.99C76.6153 61.9783 73.6948 66.3175 70.0075 70.0075C66.3175 73.6975 61.9783 76.6194 56.99 78.7733C52.0017 80.9272 46.6717 82.0027 41 82ZM41 73.8C50.0883 73.8 57.8278 70.6061 64.2183 64.2183C70.6088 57.8305 73.8027 50.0911 73.8 41C73.8 31.9117 70.6061 24.1722 64.2183 17.7817C57.8305 11.3912 50.0911 8.19727 41 8.2C31.9117 8.2 24.1722 11.3939 17.7817 17.7817C11.3912 24.1695 8.19727 31.9089 8.2 41C8.2 50.0883 11.3939 57.8278 17.7817 64.2183C24.1695 70.6088 31.9089 73.8027 41 73.8Z" fill="darkgreen"/>
</svg>
