<svg width="298" height="298" viewBox="0 0 298 298" fill="none" xmlns="http://www.w3.org/2000/svg">
<path d="M128.14 217.54L233.185 112.495L212.325 91.635L128.14 175.82L85.675 133.355L64.815 154.215L128.14 217.54ZM149 298C128.388 298 109.018 294.086 90.89 286.259C72.7617 278.431 56.9925 267.818 43.5825 254.417C30.1725 241.007 19.5587 225.238 11.7412 207.11C3.92367 188.982 0.00993333 169.612 0 149C0 128.388 3.91373 109.018 11.7412 90.89C19.5687 72.7617 30.1824 56.9925 43.5825 43.5825C56.9925 30.1725 72.7617 19.5587 90.89 11.7412C109.018 3.92367 128.388 0.00993333 149 0C169.612 0 188.982 3.91373 207.11 11.7412C225.238 19.5687 241.007 30.1824 254.417 43.5825C267.827 56.9925 278.446 72.7617 286.274 90.89C294.101 109.018 298.01 128.388 298 149C298 169.612 294.086 188.982 286.259 207.11C278.431 225.238 267.818 241.007 254.417 254.417C241.007 267.827 225.238 278.446 207.11 286.274C188.982 294.101 169.612 298.01 149 298Z" fill="#48CB33"/>
</svg>
