<svg width="74" height="74" viewBox="0 0 74 74" fill="none" xmlns="http://www.w3.org/2000/svg">
<path d="M0 74V65.7778H8.22222V8.22223C8.22222 5.96112 9.028 4.02478 10.6396 2.41323C12.2511 0.801673 14.1861 -0.00273376 16.4444 6.97982e-06H57.5556C59.8167 6.97982e-06 61.753 0.805785 63.3646 2.41734C64.9761 4.0289 65.7805 5.96386 65.7778 8.22223V65.7778H74V74H0ZM49.3333 65.7778H57.5556V8.22223H39.0556V3.70001C42.0704 4.24816 44.537 5.65278 46.4556 7.9139C48.3741 10.175 49.3333 12.813 49.3333 15.8278V65.7778ZM32.8889 41.1111C34.0537 41.1111 35.0308 40.7164 35.8201 39.9271C36.6094 39.1378 37.0027 38.1621 37 37C37 35.8352 36.6053 34.8581 35.816 34.0688C35.0267 33.2794 34.051 32.8862 32.8889 32.8889C31.7241 32.8889 30.747 33.2836 29.9577 34.0729C29.1683 34.8622 28.775 35.8379 28.7778 37C28.7778 38.1648 29.1724 39.1419 29.9618 39.9312C30.7511 40.7206 31.7268 41.1139 32.8889 41.1111Z" fill="darkgreen"/>
</svg>
